<svg xmlns="http://www.w3.org/2000/svg" xmlns:xlink="http://www.w3.org/1999/xlink" viewBox="0 0 462.31 118.66"><defs><style>.a{fill:none;}.b,.l{isolation:isolate;}.c{clip-path:url(#a);}.d{fill:#0a0a0a;}.e{clip-path:url(#b);}.f{clip-path:url(#c);}.g{clip-path:url(#d);}.h{clip-path:url(#e);}.i{clip-path:url(#f);}.j{clip-path:url(#g);}.k{clip-path:url(#h);}.l{mix-blend-mode:multiply;}.m{clip-path:url(#i);}.n{clip-path:url(#j);}.o{fill:#0059ff;}.p{clip-path:url(#l);}.q{clip-path:url(#m);}.r{fill:#87eafa;}.s{clip-path:url(#o);}.t{clip-path:url(#p);}.u{fill:#08b1fa;}.v{clip-path:url(#r);}.w{clip-path:url(#s);}.x{clip-path:url(#t);}.y{clip-path:url(#u);}</style><clipPath id="a"><path class="a" d="M127.15,65.74h16l-8-19.65Zm23.68,19-4-9.82H123.39l-4,9.82h-11.8l22-50.58h11.8L163,84.74Z"/></clipPath><clipPath id="b"><path class="a" d="M195.79,73.15A14,14,0,0,0,201,67.62a16.86,16.86,0,0,0,1.88-8.09,16.51,16.51,0,0,0-2-8.17,14.13,14.13,0,0,0-5.43-5.6,15.29,15.29,0,0,0-7.79-2h-9.84V75.13h10.4a14.83,14.83,0,0,0,7.56-2Zm6-35.77a23.08,23.08,0,0,1,9.45,9,25.2,25.2,0,0,1,3.37,13.11,25.11,25.11,0,0,1-3.44,13.12,23.75,23.75,0,0,1-9.59,9,30.21,30.21,0,0,1-14,3.21h-21.1V34.16H188A28.89,28.89,0,0,1,201.79,37.38Z"/></clipPath><clipPath id="c"><path class="a" d="M310.11,45.83V84.7H299V77.84q-4,7.29-13,7.3-6.43,0-10.24-4T272,70.28V45.83h11.16V67.07a8.21,8.21,0,0,0,2,5.78A7,7,0,0,0,290.5,75a8,8,0,0,0,6.3-2.82,10.52,10.52,0,0,0,2.32-7.08V45.83Z"/></clipPath><clipPath id="d"><path class="a" d="M318.59,45.83h11.19V84.7H318.62Zm9.89-15.5a6.73,6.73,0,0,1,0,9,5.92,5.92,0,0,1-4.38,1.74,5.78,5.78,0,0,1-4.28-1.79,6.73,6.73,0,0,1,0-8.93,5.77,5.77,0,0,1,4.31-1.73A5.84,5.84,0,0,1,328.48,30.33Z"/></clipPath><clipPath id="e"><path class="a" d="M363.48,73.22a12.45,12.45,0,0,0,0-15.54,9.72,9.72,0,0,0-13.74-.31c-.11.1-.21.2-.31.31a12.29,12.29,0,0,0,0,15.54,9.73,9.73,0,0,0,13.74.3Zm13.84-42.09V84.74H366.26V79A13.68,13.68,0,0,1,361,83.62,15.62,15.62,0,0,1,354,85.18a18.55,18.55,0,0,1-9.67-2.5,17,17,0,0,1-6.45-7,23.18,23.18,0,0,1-2.28-10.48,22.78,22.78,0,0,1,2.23-10.37,16.42,16.42,0,0,1,6.37-6.94,18.07,18.07,0,0,1,9.49-2.46q8.25,0,12.6,6.15V31.13Z"/></clipPath><clipPath id="f"><path class="a" d="M412,62.13A8.77,8.77,0,0,0,409.57,56a8.23,8.23,0,0,0-6.16-2.31,8.46,8.46,0,0,0-6,2.28,10.63,10.63,0,0,0-3.15,6.18Zm5.61-11.2q4.89,5.4,4.89,15.1c0,1.15,0,2-.07,2.67h-28a9.91,9.91,0,0,0,10.07,7.81,13.5,13.5,0,0,0,9.85-4.07l5.84,5.84a19.73,19.73,0,0,1-7.2,5.1,24.45,24.45,0,0,1-9.45,1.77,22.72,22.72,0,0,1-10.76-2.46,17.36,17.36,0,0,1-7.09-6.94,22.72,22.72,0,0,1,0-20.77,17.65,17.65,0,0,1,7.1-7,21.3,21.3,0,0,1,10.43-2.49Q412.75,45.49,417.64,50.93Z"/></clipPath><clipPath id="g"><path class="a" d="M444.6,47.39a15.29,15.29,0,0,1,7.61-2V55.87a14.38,14.38,0,0,0-1.74-.07,11.52,11.52,0,0,0-8.15,2.78,9.69,9.69,0,0,0-3,7.41V84.7H428.16V45.83h11.15v7A14.25,14.25,0,0,1,444.6,47.39Z"/></clipPath><clipPath id="h"><path class="a" d="M264.61,55.12H245.26v8.42H255v9.21A27.63,27.63,0,0,1,250,74.81a18.05,18.05,0,0,1-4.85.76,15.84,15.84,0,0,1-13.87-8,16.37,16.37,0,0,1-2.13-8.2,16.06,16.06,0,0,1,2.1-8.13A15.75,15.75,0,0,1,245,43.33a19.1,19.1,0,0,1,7.42,1.5A20.41,20.41,0,0,1,259,49l6.5-8.17a29.29,29.29,0,0,0-9.31-5.49,30.82,30.82,0,0,0-11-2,29.32,29.32,0,0,0-14.09,3.39,25.51,25.51,0,0,0-10,9.36,25.07,25.07,0,0,0-3.63,13.26A25.57,25.57,0,0,0,230.71,82.1a27.93,27.93,0,0,0,13.76,3.43,35.32,35.32,0,0,0,10.84-1.83,34.75,34.75,0,0,0,9.7-4.81V55.12Z"/></clipPath><clipPath id="i"><rect class="a" x="10.09" y="8.33" width="59" height="58"/></clipPath><clipPath id="j"><polygon class="a" points="69.06 8.33 69.06 66.33 10.09 66.33 55.41 8.33 69.06 8.33"/></clipPath><clipPath id="l"><rect class="a" x="26.09" y="51.33" width="43" height="59"/></clipPath><clipPath id="m"><path class="a" d="M69.06,51.83v58H55.53a29,29,0,0,1,0-58Z"/></clipPath><clipPath id="o"><rect class="a" x="55.09" y="29.33" width="43" height="59"/></clipPath><clipPath id="p"><path class="a" d="M98.06,59.08a29,29,0,0,1-29,29H55.53v-58H69.06A29,29,0,0,1,98.06,59.08Z"/></clipPath><clipPath id="r"><path class="a" d="M415.12,21.83c-1.69,0-1.91,1.39-1.91,3.24s.22,3.26,1.91,3.26S417,26.92,417,25.07s-.22-3.3-1.92-3.3Zm3.59,8a4,4,0,0,1-2.76,1,3.49,3.49,0,0,1-2.83-1.2V30.7h-2.74V15.21h2.88v5.15A3.31,3.31,0,0,1,416,19.28a3.88,3.88,0,0,1,2.76,1c1.13,1.13,1.15,3.07,1.15,4.76S419.84,28.67,418.71,29.83Z"/></clipPath><clipPath id="s"><path class="a" d="M428.84,22.75a2.07,2.07,0,0,0-1.21-1.09,2.1,2.1,0,0,0-1.63.09,2.19,2.19,0,0,0-.95,1,3.42,3.42,0,0,0-.26,1.22h4.31A3,3,0,0,0,428.84,22.75Zm-4,3.15a2.36,2.36,0,0,0,2.14,2.52h.33a3.17,3.17,0,0,0,2.57-1.07L431.55,29a5.48,5.48,0,0,1-4.29,1.79c-2.67,0-5.24-1.22-5.24-5.81,0-3.69,2-5.78,4.94-5.78,3.15,0,4.93,2.3,4.93,5.41V25.9Z"/></clipPath><clipPath id="t"><path class="a" d="M438,30.69a3.09,3.09,0,0,1-3.28-2.85v-6h-1.2V19.68h1.2V16.34h2.82v3.34h2v2.15h-2v5.45a.88.88,0,0,0,1,1h1v2.39Z"/></clipPath><clipPath id="u"><path class="a" d="M448,25.9h-2.24c-1,0-1.59.48-1.59,1.29s.52,1.3,1.63,1.3a2.25,2.25,0,0,0,1.78-.54,1.84,1.84,0,0,0,.42-1.44Zm.06,4.79v-1a3.46,3.46,0,0,1-2.81,1.14,3.93,3.93,0,0,1-2.89-1,3.67,3.67,0,0,1-.89-2.55c0-1.8,1.24-3.28,3.87-3.28H448v-.57c0-1.24-.61-1.78-2.11-1.78a2.4,2.4,0,0,0-2.18.94L442,20.83a4.72,4.72,0,0,1,4-1.55c3.17,0,4.82,1.35,4.82,4v7.46Z"/></clipPath></defs><title>微信 (2)</title><g class="b"><g class="c"><rect class="d" x="102.59" y="29.16" width="65.45" height="60.58"/></g><g class="e"><rect class="d" x="161.48" y="29.15" width="58.13" height="60.67"/></g><g class="f"><rect class="d" x="266.98" y="40.83" width="48.13" height="49.31"/></g><g class="g"><rect class="d" x="313.12" y="23.61" width="22.08" height="66.08"/></g><g class="h"><rect class="d" x="330.55" y="26.13" width="51.78" height="64.05"/></g><g class="i"><rect class="d" x="378.23" y="40.48" width="49.3" height="49.67"/></g><g class="j"><rect class="d" x="423.16" y="40.39" width="34.05" height="49.31"/></g><g class="k"><rect class="d" x="212.45" y="28.36" width="58.03" height="62.17"/></g><g class="l"><g class="m"><g class="n"><g class="m"><rect class="o" x="5.09" y="3.33" width="68.97" height="68"/></g></g></g></g><g class="l"><g class="p"><g class="q"><g class="p"><rect class="r" x="21.53" y="46.83" width="52.53" height="68"/></g></g></g></g><g class="l"><g class="s"><g class="t"><g class="s"><rect class="u" x="50.53" y="25.08" width="52.53" height="68"/></g></g></g></g><g class="v"><rect class="u" x="405.38" y="10.21" width="19.53" height="25.63"/></g><g class="w"><rect class="u" x="417.02" y="14.23" width="19.87" height="21.6"/></g><g class="x"><rect class="u" x="428.55" y="11.34" width="16.02" height="24.36"/></g><g class="y"><rect class="u" x="436.48" y="14.25" width="19.35" height="21.59"/></g></g></svg>