<svg id="图层_1" data-name="图层 1" xmlns="http://www.w3.org/2000/svg" viewBox="0 0 720.85 198.34"><defs><style>.cls-1{fill:#344356;}.cls-2{fill:#7fd8ff;}.cls-3{fill:#0074ff;}.cls-4{fill:#00adff;}</style></defs><title>算数logo</title><polygon class="cls-1" points="445.39 64.5 379.5 64.5 378.68 56.92 446.1 56.92 445.39 64.5"/><polygon class="cls-1" points="447.35 117.05 378.63 117.05 377.81 109.47 448.06 109.47 447.35 117.05"/><rect class="cls-1" x="357.92" y="83.32" width="110.78" height="7.58"/><rect class="cls-1" x="360.66" y="137.59" width="104.97" height="7.58"/><rect class="cls-1" x="357.92" y="152.98" width="110.84" height="7.58"/><rect class="cls-1" x="384.19" y="122.29" width="60.09" height="13.05" transform="translate(543.06 -285.42) rotate(90)"/><path class="cls-1" d="M360.18,96.11V130.4h99.89a5.36,5.36,0,0,0,5.37-5.36V96.11Zm13.05,26.46V103.94h79.16V121a1.54,1.54,0,0,1-1.54,1.54Z"/><path class="cls-1" d="M361.32,43.28v34.9h97a5.36,5.36,0,0,0,5.36-5.36V43.28Zm89.35,26.18a1.15,1.15,0,0,1-1.15,1.14H374.08L374,50.86h76.64Z"/><path class="cls-1" d="M243.67,147.38V54.58h97.75V43.28l-110.78.22.1,111.73a5.35,5.35,0,0,0,5.36,5.35H341.42v-11.3H245.57A1.9,1.9,0,0,1,243.67,147.38Z"/><path class="cls-1" d="M242.4,77.83l-1.06,11.3H323L321.82,114a1.08,1.08,0,0,1-1.07,1H248.24l1.23,11.29h81.35a3.56,3.56,0,0,0,3.56-3.27l2.07-45.21Z"/><path id="Fill-1" class="cls-2" d="M86.27,1.41a3.24,3.24,0,0,0-3.28,0L.18,49V78.25l27.64,16.8-.14-23.62,57-34.58,83.75,50.68V56.12Z"/><polygon id="Fill-3" class="cls-3" points="140.75 128.1 84.38 162.29 0.18 111.23 0.18 142.53 84.06 197.86 167.72 149.5 167.72 120.34 140.75 103.98 140.75 128.1"/><path class="cls-4" d="M84.92,69.66l-49.4,30,49.4,30,49.21-29.88Zm-.09,40.27a9.86,9.86,0,1,1,9.86-9.86A9.87,9.87,0,0,1,84.83,109.93Z"/><path class="cls-1" d="M501.33,58.56h8c1.17,1.95,2.28,3.85,3.33,5.72s1.9,3.51,2.57,5h13.55q-1.38-2.53-3-5.34t-3.13-5.33h16.43V48.9H505.36c.42-.84.84-1.67,1.26-2.48s1.12-2.28,1.54-3.13H494.87c-4.12,8.91-13.48,24.16-14.74,25.94h14.68C495.9,67.79,500.15,60.51,501.33,58.56Z"/><path class="cls-1" d="M558.27,58.56h8c1.17,1.95,2.28,3.85,3.33,5.72s1.9,3.51,2.57,5h13.55c-.92-1.69-1.93-3.47-3-5.34s-2.13-3.64-3.14-5.33H596V48.9H562.31c.42-.84.84-1.67,1.26-2.48s1.12-2.28,1.54-3.13H551.82c-4.13,8.91-13.49,24.16-14.74,25.94h14.68C552.85,67.79,557.1,60.51,558.27,58.56Z"/><path class="cls-1" d="M574.38,128.82v-6.09H561.6v6.09H519.3q.38-2.16.75-4.26c.1-.52.18-1.16.26-1.83H508.07c-.08.67-.16,1.31-.26,1.83a43.55,43.55,0,0,1-1,4.26H483.72v9.92h19.83c-3.62,11-8.94,17.57-11.48,21.88h13.56c1.67-2.46,7.89-12.89,10.91-21.88H561.6v21.85h12.78V138.74h21.67v-9.92Z"/><path class="cls-1" d="M665.08,115.57c.08-.86.16-1.73.16-2.6v-4.48H608.78l.06,9.31H652.7c-.38,2.66-2.64,11.83-14.42,21.09a31.61,31.61,0,0,1-10.8-17.07H615c2.52,9,7.45,18,13.28,23.16a72.6,72.6,0,0,1-16.81,5.37V161a73.16,73.16,0,0,0,27.19-8.7A79.06,79.06,0,0,0,665.24,161v-11.1a67.57,67.57,0,0,1-16.5-4.77C649.2,145.36,663.86,128.72,665.08,115.57Z"/><path class="cls-1" d="M615.13,63.64h11.8c-.93-4-2.87-14.29-3.8-18.3h-12C611.42,46.45,614.88,62.2,615.13,63.64Z"/><path class="cls-1" d="M608.86,99.66h12c1.09-3.47,4.48-16.79,4.9-20.27H614.51Z"/><path class="cls-1" d="M664.18,45.34h-12.3c-.33,2.55-1.21,15.69-1.7,18.3h12.17C662.69,62.37,664,46.53,664.18,45.34Z"/><path class="cls-1" d="M660.81,79.39H649.6C651,84.52,654,96.61,655,99.66h11.23C665.39,96.86,662.2,84.19,660.81,79.39Z"/><polygon class="cls-1" points="667.59 66.31 644.01 66.31 644.01 43.28 632.02 43.28 632.02 66.31 608.48 66.31 608.48 76.85 632.02 76.85 632.02 99.66 644.01 99.66 644.01 76.85 667.59 76.85 667.59 66.31"/><rect class="cls-1" x="614.04" y="103" width="12.02" height="11.39"/><path class="cls-1" d="M614,114.4a25.37,25.37,0,0,0,1,7.42l2.2,4.67,10.27-4.67a18.16,18.16,0,0,1-1.42-7.42Z"/><path class="cls-1" d="M685.53,63.09h18s12,0,12,0h5.31V53.73h-35.5l1-10.45H673.56l-1.81,19.85h13.79Z"/><path class="cls-1" d="M703.48,63.09V77.41c0,10.55-5.31,49.87-33.34,71.12v12.68s42.25-22.78,44.55-84.34V63.09Z"/><path class="cls-1" d="M684,71.93s4.31,54.78,36.48,76.57v12.71s-38.38-14.83-47.46-89.1Z"/><path class="cls-1" d="M588.58,114.54V72.79H490.45v46.95h92.93A5.2,5.2,0,0,0,588.58,114.54Zm-85.36-34.1h72.57v30.12A1.49,1.49,0,0,1,574.3,112H503.22Z"/><polygon class="cls-1" points="571.29 85.8 507.72 85.8 508.39 93.42 570.61 93.42 571.29 85.8"/><polygon class="cls-1" points="571.29 99.11 507.72 99.11 508.36 106.73 570.61 106.73 571.29 99.11"/></svg>