<?xml version="1.0" encoding="utf-8"?>
<!-- Generator: Adobe Illustrator 22.1.0, SVG Export Plug-In . SVG Version: 6.00 Build 0)  -->
<svg version="1.1" id="Layer_1" xmlns="http://www.w3.org/2000/svg" xmlns:xlink="http://www.w3.org/1999/xlink" x="0px" y="0px"
	 viewBox="0 0 281.3 206.6" enable-background="new 0 0 281.3 206.6" xml:space="preserve">
<g>
	<g>
		<g>
			<path d="M70.5,116.6c0,3.4,2.7,6.1,6.2,6.1h4.2c3.4,0,6.1-2.7,6.1-6.1V91.3c0-3.5-2.6-6.2-6.1-6.2h-4.2c-3.4,0-6.2,2.7-6.2,6.2
				V116.6"/>
			<path d="M227.7,0.2h-71.5c-1.3,0-3.2,0.8-4.1,1.7L77.8,76.2h3c9.6,0,15.9,6.1,15.9,15.1v25.3c0,9-6.3,15.1-15.9,15.1h-4.2
				c-9.7,0-15.9-6.1-15.9-15.1V93.2l-35.5,35.5c-0.9,0.9-1.7,2.8-1.7,4.1l0,71.5c0,1.3,1.1,2.4,2.4,2.4h71.5c1.3,0,3.2-0.8,4.1-1.7
				l74.2-74.2h-21.6c-0.6,0-0.8-0.3-0.8-0.9V77.9c0-0.6,0.3-0.9,0.8-0.9h30.2c0.5,0,0.9,0.3,0.9,0.9v7.3c0,0.6-0.3,0.9-0.9,0.9H164
				c-0.6,0-0.9,0.3-0.9,0.9v11.4c0,0.6,0.3,0.9,0.9,0.9h16.7c0.6,0,0.9,0.3,0.9,0.9v7.3c0,0.6-0.3,0.9-0.9,0.9H164
				c-0.6,0-0.9,0.3-0.9,0.9V121c0,0.6,0.3,0.9,0.9,0.9h20.3c0.1,0,0.2,0,0.3,0.1l43.7-43.7c0.9-0.9,1.7-2.8,1.7-4.1l0-71.5
				C230.1,1.3,229,0.2,227.7,0.2z M141.8,130c0,0.6-0.3,0.9-0.9,0.9h-7.1l-0.8-0.4l-17.5-34.3L116,130c0,0.6-0.3,0.9-0.9,0.9h-7.9
				c-0.6,0-0.9-0.3-0.9-0.9V77.9c0-0.6,0.3-0.9,0.9-0.9h7.2l0.8,0.4l17.4,34.7l-0.3-34.2c0-0.6,0.3-0.9,0.9-0.9h7.9
				c0.5,0,0.9,0.3,0.9,0.9V130"/>
			<g>
				<g>
					<path d="M13.2,79.9H9.3c-0.3,0-0.4,0.1-0.4,0.4v18.1c0,0.3-0.1,0.4-0.4,0.4H5.2c-0.3,0-0.4-0.1-0.4-0.4V80.3
						c0-0.3-0.1-0.4-0.4-0.4H0.6c-0.3,0-0.4-0.1-0.4-0.4v-3c0-0.3,0.1-0.4,0.4-0.4h12.6c0.2,0,0.4,0.1,0.4,0.4v3
						C13.6,79.8,13.5,79.9,13.2,79.9z"/>
					<path d="M31.7,98.7h-3.4c-0.3,0-0.4-0.1-0.4-0.4v-8.8c0-0.3-0.1-0.4-0.4-0.4H21c-0.3,0-0.4,0.1-0.4,0.4v8.8
						c0,0.3-0.1,0.4-0.4,0.4h-3.4c-0.3,0-0.4-0.1-0.4-0.4V76.5c0-0.3,0.1-0.4,0.4-0.4h3.4c0.2,0,0.4,0.1,0.4,0.4V85
						c0,0.3,0.1,0.4,0.4,0.4h6.7c0.3,0,0.4-0.1,0.4-0.4v-8.5c0-0.3,0.1-0.4,0.4-0.4h3.4c0.3,0,0.4,0.1,0.4,0.4v21.9
						C32.1,98.6,32,98.7,31.7,98.7z"/>
					<path d="M49,98.7H36.4c-0.3,0-0.4-0.1-0.4-0.4V76.5c0-0.3,0.1-0.4,0.4-0.4H49c0.2,0,0.4,0.1,0.4,0.4v3c0,0.3-0.1,0.4-0.4,0.4
						h-8.5c-0.3,0-0.4,0.1-0.4,0.4V85c0,0.3,0.1,0.4,0.4,0.4h7c0.3,0,0.4,0.1,0.4,0.4v3c0,0.3-0.1,0.4-0.4,0.4h-7
						c-0.3,0-0.4,0.1-0.4,0.4v5.1c0,0.3,0.1,0.4,0.4,0.4H49c0.2,0,0.4,0.1,0.4,0.4v3C49.4,98.6,49.3,98.7,49,98.7z"/>
				</g>
				<g>
					<path d="M206.3,114.1c0,1.7,1.6,2.2,4.2,3.3c3.8,1.8,5.6,3.7,5.6,7.3c0,3.8-2.6,6.3-6.7,6.3H208c-2,0-3.6-0.6-4.7-1.7
						c-1.2-1.2-1.6-2.3-1.6-2.6c0-0.1,0.1-0.2,0.2-0.3l3.1-1.5c0.1,0,0.1,0,0.2,0c0.3,0,0.3,0.4,0.7,1.1c0.4,0.8,1.3,1.3,2.1,1.3
						h1.4c1.4,0,2.6-1.1,2.6-2.6c0-1.8-1.5-2.4-3.8-3.5c-3.9-1.9-5.9-3.5-5.9-7.1c0-3.8,2.7-6.3,6.7-6.3h0.5c1.6,0,2.9,0.4,4.1,1.2
						c1.4,1,2.3,2.6,2.3,3c0,0.1-0.1,0.2-0.2,0.3l-3.1,1.5c-0.1,0-0.1,0-0.2,0c-0.2,0-0.3-0.2-0.5-0.5c-0.7-1.1-1.3-1.8-2.4-1.8
						h-0.5C207.5,111.5,206.3,112.7,206.3,114.1z"/>
					<path d="M234,130.7h-3.4c-0.3,0-0.4-0.1-0.4-0.4v-8.8c0-0.3-0.1-0.4-0.4-0.4h-6.7c-0.3,0-0.4,0.1-0.4,0.4v8.8
						c0,0.3-0.1,0.4-0.4,0.4h-3.4c-0.3,0-0.4-0.1-0.4-0.4v-21.9c0-0.3,0.1-0.4,0.4-0.4h3.4c0.2,0,0.4,0.1,0.4,0.4v8.5
						c0,0.3,0.1,0.4,0.4,0.4h6.7c0.3,0,0.4-0.1,0.4-0.4v-8.5c0-0.3,0.1-0.4,0.4-0.4h3.4c0.3,0,0.4,0.1,0.4,0.4v21.9
						C234.4,130.6,234.3,130.7,234,130.7z"/>
					<path d="M246.2,131.1h-1.8c-4,0-6.7-2.5-6.7-6.3v-10.6c0-3.8,2.7-6.3,6.7-6.3h1.8c4,0,6.7,2.5,6.7,6.3v10.6
						C252.9,128.5,250.2,131.1,246.2,131.1z M248.8,114.1c0-1.5-1.1-2.6-2.5-2.6h-1.8c-1.4,0-2.6,1.1-2.6,2.6v10.6
						c0,1.4,1.1,2.6,2.6,2.6h1.8c1.4,0,2.5-1.1,2.5-2.6V114.1z"/>
					<path d="M273.5,130.4c0,0.2-0.2,0.3-0.4,0.3h-2.6c-0.2,0-0.3-0.1-0.4-0.3l-3.6-14.2l-3.6,14.2c0,0.2-0.1,0.3-0.4,0.3H260
						c-0.2,0-0.3-0.1-0.4-0.3l-4.7-21.9c0,0,0-0.1,0-0.1c0-0.2,0.1-0.3,0.4-0.3h3.7c0.2,0,0.3,0.1,0.4,0.3l2.6,14.6l3.4-14.7
						c0-0.2,0.1-0.3,0.4-0.3h1.8c0.2,0,0.3,0.1,0.4,0.3l3.4,14.7l2.7-14.6c0-0.2,0.2-0.3,0.4-0.3h3.7c0.3,0,0.4,0.1,0.4,0.3
						c0,0,0,0.1,0,0.1L273.5,130.4z"/>
				</g>
			</g>
		</g>
	</g>
</g>
<g>
</g>
<g>
</g>
<g>
</g>
<g>
</g>
<g>
</g>
<g>
</g>
</svg>
