<?xml version="1.0" encoding="utf-8"?>
<!-- Generator: Adobe Illustrator 25.4.1, SVG Export Plug-In . SVG Version: 6.00 Build 0)  -->
<svg version="1.1" id="Logomark" xmlns="http://www.w3.org/2000/svg" xmlns:xlink="http://www.w3.org/1999/xlink" x="0px" y="0px"
	 viewBox="0 0 946.8 163.1" style="enable-background:new 0 0 946.8 163.1;" xml:space="preserve">
<style type="text/css">
	.st0{fill:#EF8331;}
	.st1{fill:#E96C24;}
	.st2{fill:#FBBB85;}
	.st3{fill:#1F2159;}
	.st4{fill:#7878C9;}
	.st5{fill:#414192;}
</style>
<g>
	<path class="st0" d="M64,37.7c9.2-6.9,20.4-10.5,31.8-10.3V0C78.6-0.2,61.8,5.2,48,15.6L64,37.7L64,37.7z"/>
	<path class="st1" d="M64,37.7L48,15.6c-14.1,9.9-24.5,24.3-29.6,40.8l26,8.5C47.7,53.8,54.7,44.3,64,37.7L64,37.7z"/>
	<path class="st2" d="M44.4,98.3L44.4,98.3l-26,8.5c5.1,16.5,15.5,30.8,29.6,40.8l16.1-22.2C54.7,118.8,47.8,109.2,44.4,98.3
		L44.4,98.3z"/>
	<path class="st0" d="M64,125.4L64,125.4L48,147.5c13.8,10.3,30.7,15.8,47.9,15.6v-27.4C84.4,135.9,73.2,132.2,64,125.4L64,125.4z"
		/>
	<path class="st1" d="M127.7,125.4c-9.2,6.9-20.4,10.5-31.8,10.4v27.4c17.3,0.2,34.1-5.2,47.9-15.6L127.7,125.4L127.7,125.4
		L127.7,125.4L127.7,125.4z"/>
	<path class="st2" d="M147.4,98.3c-3.4,11-10.3,20.5-19.7,27.1l16.1,22.2c14.1-9.9,24.5-24.3,29.6-40.8L147.4,98.3L147.4,98.3z"/>
	<path class="st0" d="M173.4,56.3l-26,8.5c3.7,10.9,3.7,22.6,0,33.5l26,8.5C179,90.4,179,72.7,173.4,56.3L173.4,56.3z"/>
	<path class="st1" d="M147.4,64.8l26-8.5c-5.1-16.5-15.5-30.8-29.6-40.8l-16.1,22.1C137.1,44.3,144,53.8,147.4,64.8L147.4,64.8z"/>
	<path class="st2" d="M127.7,37.7L127.7,37.7l16.1-22.2C130,5.2,113.1-0.2,95.9,0v27.3C107.4,27.2,118.5,30.8,127.7,37.7L127.7,37.7
		z"/>
	<path class="st3" d="M79.3,104.4L64,125.4c9.2,6.9,20.4,10.5,31.8,10.4v-25.9C89.9,109.9,84.1,108,79.3,104.4L79.3,104.4z"/>
	<path class="st4" d="M69,90.3l-24.6,8c3.4,11,10.3,20.5,19.7,27.1l15.2-20.9C74.4,100.9,70.8,96,69,90.3L69,90.3z"/>
	<path class="st5" d="M79.3,58.7L64,37.7c-9.4,6.6-16.3,16.1-19.7,27.1l24.6,8C70.8,67.1,74.4,62.2,79.3,58.7L79.3,58.7z"/>
	<path class="st3" d="M95.9,53.2V27.4C84.4,27.2,73.2,30.8,64,37.7l15.2,20.9C84.1,55.1,89.9,53.2,95.9,53.2L95.9,53.2z"/>
	<path class="st4" d="M112.5,58.7l15.2-20.9c-9.2-6.9-20.4-10.5-31.8-10.3v25.9C101.9,53.2,107.7,55.1,112.5,58.7L112.5,58.7z"/>
	<path class="st5" d="M127.7,37.7L127.7,37.7l-15.2,20.9c4.8,3.5,8.4,8.5,10.3,14.1l24.6-8C144,53.8,137.1,44.3,127.7,37.7
		L127.7,37.7z"/>
	<path class="st3" d="M124.2,81.5c0,3-0.5,5.9-1.4,8.7l24.6,8c3.7-10.9,3.7-22.6,0-33.5l-24.6,8C123.7,75.6,124.2,78.6,124.2,81.5
		L124.2,81.5z"/>
	<path class="st4" d="M112.5,104.4l15.2,20.9l0,0c9.4-6.6,16.3-16.1,19.7-27.1l-24.6-8C121,96,117.4,100.9,112.5,104.4L112.5,104.4z
		"/>
	<path class="st5" d="M95.9,109.9v25.9c11.5,0.2,22.7-3.5,31.8-10.4l-15.2-20.9C107.7,108,101.9,109.9,95.9,109.9L95.9,109.9z"/>
	<polygon class="st4" points="44.4,98.4 69,90.3 50.5,80.2 27.2,85.5 44.4,98.4 	"/>
	<polyline class="st2" points="44.4,98.4 27.2,85.5 -0.1,91.7 18.4,107 44.4,98.4 	"/>
</g>
<g>
	<path class="st5" d="M233,64.6c-4.7-4.3-8.8-4.6-10.6-4.6c-2,0-4.5,0.3-6.2,2.2c-1,1.1-1.6,2.5-1.6,4c-0.1,1.3,0.4,2.6,1.4,3.5
		c1.5,1.4,3.7,2,8,3.6l4.7,1.8c2.7,1,6.2,2.5,8.6,4.9c3.1,3.1,4.8,7.4,4.7,11.8c0,6.6-2.3,12.3-5.6,15.7c-5.6,5.9-13.8,6.5-18,6.5
		c-4.3,0.1-8.6-0.8-12.5-2.7c-3.4-1.8-6.6-4.2-9.3-6.9l7.6-10.4c1.8,1.8,3.8,3.4,5.9,4.8c2.4,1.5,5.2,2.3,8,2.3
		c2.4,0.1,4.8-0.7,6.6-2.2c1.5-1.3,2.3-3.2,2.3-5.1c0-1.8-0.8-3.5-2.2-4.6c-1.7-1.4-5.6-2.8-7.4-3.5l-5.2-1.8c-2.9-1-6.4-2.4-8.8-5
		c-3.3-3.5-3.8-8-3.8-11c-0.2-5.3,1.8-10.4,5.5-14.2c4.5-4.6,9.8-5.8,15.7-5.8c6.8-0.1,13.4,2.1,18.8,6.2L233,64.6L233,64.6z"/>
	<path class="st5" d="M265.7,83.3c-4.2,4.5-4.2,11.5,0,16c2.1,2,4.9,3.1,7.8,3c2.8,0.1,5.6-1,7.6-3c4.2-4.5,4.2-11.5,0-16
		C276.7,79.3,270,79.3,265.7,83.3L265.7,83.3z M291.9,107.1c-3.8,3.8-10.3,6.8-18.5,6.8c-8.3,0-14.7-3-18.5-6.8
		c-8.5-8.8-8.5-22.7,0-31.5c3.8-3.8,10.3-6.8,18.5-6.8c8.3,0,14.7,3,18.5,6.8C300.4,84.3,300.4,98.3,291.9,107.1L291.9,107.1z"/>
	<path class="st5" d="M338.2,83.5c-2.5-2.1-5.7-3.2-8.9-3.2c-2.9-0.1-5.7,1-7.8,3c-2.1,2.1-3.2,5-3.1,8c-0.1,2.8,1,5.5,2.8,7.6
		c2.2,2.2,5.2,3.5,8.3,3.4c3.2,0,6.3-1.2,8.7-3.3v12.3c-3.3,1.8-7.1,2.7-10.8,2.6c-6.1,0.2-12-2.1-16.4-6.4
		c-4.3-4.2-6.7-10.1-6.6-16.2c-0.1-6.3,2.5-12.4,7-16.7c4.7-4.5,10.4-6,16.1-6c3.7,0,7.4,0.8,10.7,2.4L338.2,83.5L338.2,83.5
		L338.2,83.5z"/>
	<path class="st5" d="M361.6,70.1v42.4h-13.7V70.1L361.6,70.1L361.6,70.1L361.6,70.1z M354.8,44.1c4.4,0,8,3.6,8,8c0,4.4-3.6,8-8,8
		c-4.4,0-8-3.6-8-8c-0.1-4.4,3.5-8,7.8-8C354.7,44.1,354.7,44.1,354.8,44.1L354.8,44.1z"/>
	<path class="st5" d="M387.9,83.5c-2,2-3.2,4.8-3.1,7.7c-0.1,2.8,1,5.5,2.8,7.6c2.1,2.2,5,3.4,8.1,3.3c2.7,0,5.2-1.1,7.1-3
		c4.4-4.3,4.4-11.3,0.2-15.8c-2.1-1.9-4.8-2.9-7.6-2.9C392.6,80.5,389.9,81.6,387.9,83.5L387.9,83.5z M405.3,70.1H419v42.4h-13.7
		v-5.1c-2.7,4.3-7.5,6.8-12.5,6.5c-6.1,0-11.2-1.5-15.9-6.5c-4.1-4.3-6.3-10-6.2-15.9c-0.1-6.3,2.2-12.5,6.5-17.1
		c3.9-3.8,9.2-5.9,14.7-5.8c3.6,0,9.4,0.9,13.3,6.2V70.1L405.3,70.1L405.3,70.1z"/>
	<polygon class="st5" points="443.3,43.2 443.3,112.5 429.6,112.5 429.6,43.2 443.3,43.2 	"/>
	<polygon class="st5" points="452.6,112.5 462.8,49.1 474.9,49.1 490.7,87 506.5,49.1 518.7,49.1 528.8,112.5 514.2,112.5 
		509.2,74.7 493.3,112.5 488.2,112.5 472.3,74.7 467.3,112.5 452.6,112.5 	"/>
	<path class="st5" d="M568.5,85.5c-0.5-1.9-1.4-3.6-2.7-4.9c-3.9-3.3-9.7-3.2-13.4,0.4c-1.2,1.3-2,2.9-2.4,4.6H568.5L568.5,85.5z
		 M581.1,93.7h-31.6c0,2.6,0.9,5.2,2.6,7.2c1.8,1.8,4.4,2.8,7,2.7c1.9,0.1,3.8-0.4,5.5-1.2c1.3-0.9,2.3-2.1,2.9-3.5l13,1.3
		c-1.3,4.4-4.2,8.2-8.2,10.6c-4.1,2.5-8.6,3.1-13.4,3.1c-6.4,0-12-1.1-16.9-6.1c-4.2-4.4-6.5-10.3-6.4-16.3
		c-0.1-6.2,2.2-12.2,6.5-16.7c5.1-5.1,11.5-6.1,16.2-6.1c4.7,0,11.6,0.9,16.8,6.4c5,5.3,6,12,6,17.2L581.1,93.7L581.1,93.7
		L581.1,93.7z"/>
	<path class="st5" d="M604.6,83.3c-2.2,2.1-3.4,5-3.3,8.1c0,2.9,1.2,5.8,3.3,7.8c1.9,1.9,4.5,2.9,7.1,3c2.9,0,5.7-1.2,7.8-3.1
		c2.1-2,3.2-4.7,3.1-7.6c0.1-2.9-1-5.7-3-7.8c-2-2.1-4.8-3.2-7.7-3.1C609.2,80.4,606.6,81.4,604.6,83.3L604.6,83.3z M635.5,112.5
		h-13.7v-5.1c-2.1,3-5.9,6.5-13.4,6.5c-6.3,0-10.8-2-14.5-5.8c-4.4-4.6-6.8-10.7-6.6-17c0-7,2.6-12.8,6.6-16.7
		c4-3.7,9.3-5.8,14.7-5.7c4.7,0,9.8,1.5,13.2,6.2V43.2h13.7V112.5L635.5,112.5z"/>
	<path class="st5" d="M660.8,70.1v42.4h-13.7V70.1L660.8,70.1L660.8,70.1L660.8,70.1z M653.9,44.1c4.4,0,8,3.6,8,8c0,4.4-3.6,8-8,8
		c-4.4,0-8-3.6-8-8c0-4.4,3.5-8,7.8-8C653.8,44.1,653.9,44.1,653.9,44.1L653.9,44.1z"/>
	<path class="st5" d="M687.1,83.5c-2,2-3.2,4.8-3.1,7.7c-0.1,2.8,1,5.5,2.8,7.6c2.1,2.2,5,3.4,8.1,3.3c2.7,0,5.2-1.1,7.1-3
		c4.4-4.3,4.4-11.3,0.2-15.8c-2.1-1.9-4.8-2.9-7.6-2.9C691.8,80.5,689.1,81.6,687.1,83.5L687.1,83.5z M704.4,70.1h13.7v42.4h-13.7
		v-5.1c-2.7,4.3-7.5,6.8-12.5,6.5c-6.1,0-11.2-1.5-15.9-6.5c-4.1-4.3-6.3-10-6.2-15.9c-0.1-6.3,2.2-12.5,6.5-17.1
		c3.9-3.8,9.2-5.9,14.7-5.8c3.6,0,9.4,0.9,13.3,6.2V70.1L704.4,70.1z"/>
</g>
<g>
	<polygon class="st0" points="746.8,55.8 746.8,112.5 739.8,112.5 739.8,55.8 724.4,55.8 724.4,49.1 762.2,49.1 762.2,55.8 
		746.8,55.8 	"/>
	<path class="st0" d="M766.2,92.9c0,9.7,6.8,14.6,13.9,14.6c7,0,13.9-5,13.9-14.6c0-9.6-6.6-14.7-13.9-14.7
		C772.8,78.2,766.2,83.3,766.2,92.9L766.2,92.9L766.2,92.9z M759.2,92.9c0-12,8.8-20.8,20.9-20.8S801,80.9,801,92.9
		c0,12-8.9,20.7-20.9,20.7S759.2,104.9,759.2,92.9L759.2,92.9z"/>
	<path class="st0" d="M815.6,92.7c0,8.5,4.8,14.8,12.9,14.8c8.4,0,13.1-6.9,13.1-14.7c0-10.2-7-14.6-13.1-14.6
		C821.8,78.2,815.6,83.1,815.6,92.7L815.6,92.7L815.6,92.7z M841.2,43.2h6.8v69.3h-6.8V107c-3.2,4.2-8.2,6.7-13.5,6.6
		c-10,0-19.2-7-19.2-20.9c0-13.6,9.1-20.6,19.2-20.6c5.3-0.1,10.3,2.3,13.5,6.6V43.2L841.2,43.2z"/>
	<path class="st0" d="M865.2,92.7c0,8.5,4.7,14.8,12.9,14.8c8.4,0,13.1-6.9,13.1-14.7c0-10.2-7-14.6-13.1-14.6
		C871.4,78.2,865.2,83.1,865.2,92.7L865.2,92.7z M890.8,73.1h6.8v39.4h-6.8V107c-3.2,4.2-8.2,6.7-13.5,6.6c-10,0-19.2-7-19.2-20.9
		c0-13.6,9.1-20.6,19.2-20.6c5.3-0.1,10.3,2.3,13.5,6.6V73.1L890.8,73.1z"/>
	<polygon class="st0" points="922.7,108.8 904.5,73.1 912.3,73.1 926.3,101.3 939.1,73.1 946.7,73.1 917.7,134.3 910.1,134.3 
		922.7,108.8 	"/>
</g>
</svg>
